<svg xmlns="http://www.w3.org/2000/svg" width="274.156" height="51.313" viewBox="0 0 274.156 51.313">
  <defs>
    <style>
      .cls-1 {
        fill: #9c9c5a;
        fill-rule: evenodd;
      }
    </style>
  </defs>
  <path id="Dreb_Bits" data-name="Dreb Bits" class="cls-1" d="M735.072,358.916v-29.6c0-3.971,1.87-5.415,4.461-5.415,14.174,0,15.757,12.2,15.757,23.1,0,13.14-7.842,17.616-13.311,17.616C736.942,364.619,735.072,363.753,735.072,358.916Zm-4.965,8.591c2.878,0,8.778.145,11.656,0.145,6.3,0,13.477-1.6,18.564-6.065,3.454-3.032,5.828-9.054,5.828-16.389,0-13.357-8.634-24.331-26.334-24.331-3.814,0-6.836.072-9.714,0.072s-11.081-.144-11.081-0.144a1.667,1.667,0,0,0,0,2.455c3.958,0.216,5.972.5,5.972,6.5V358.7c0,5.992-2.014,6.281-5.972,6.5a1.667,1.667,0,0,0,0,2.455S727.229,367.507,730.107,367.507Zm53.027-19.371a6.282,6.282,0,0,1,1.727-4.743,2.8,2.8,0,0,1,2.281-1.227,3.179,3.179,0,0,1,2.036,1.379,4.5,4.5,0,0,0,3.346,1.184c2.086,0,4.137-2.2,4.137-5.235,0-1.877-2.159-4.043-4.749-4.043-2.518,0-5.252,2.166-8.562,6.931h-0.288c-0.144-2.166-.5-5.7-0.5-5.7a1.5,1.5,0,0,0-1.655-1.227,75.879,75.879,0,0,1-11.944,2.383,5.887,5.887,0,0,0,.144,2.238c3.922,0.368,4.677,1.011,4.677,5.126v13.5c0,5.992-.791,6.137-5.181,6.5a2.492,2.492,0,0,0,0,2.455c3.022-.073,6.016-0.145,9.858-0.145s6.763,0.072,9.857.145a2.487,2.487,0,0,0,0-2.455c-4.389-.289-5.18-0.506-5.18-6.5V348.136Zm24.246-.483c0.072-2.527.461-5.249,1.44-6.715a5.566,5.566,0,0,1,3.885-2.455c1.943,0,4.6,1.878,4.6,7.653a4.486,4.486,0,0,1-.144,1.517H807.38Zm18.276,10.541a13.345,13.345,0,0,1-9.569,3.826c-5.613,0-9.066-3.249-9.066-10.324,0-.506.072-0.794,0.072-1.155h17.268a1.954,1.954,0,0,0,2.087-2.239c0-6.136-2.375-12.851-12.952-12.851-7.555,0-16.189,6.715-16.189,17.761a15.525,15.525,0,0,0,4.605,11.407c2.706,2.462,6.253,3.61,11.369,3.61,4.964,0,9.857-2.527,13.455-7.8C826.736,359.493,826.376,358.194,825.656,358.194Zm6.619,0.144a66.574,66.574,0,0,1-.432,9.6,7.792,7.792,0,0,0,2.447.506,9.228,9.228,0,0,0,2.3-3.105c2.806,2.166,7.224,2.888,10.5,2.888,7.987,0,16.4-7.934,16.4-18.266a17,17,0,0,0-3.885-10.83c-2.59-2.96-6.066-3.682-9.858-3.682-2.23,0-6.044,2.527-8.13,4.043V325.416c0-4.693.216-7.365,0.216-7.365a0.976,0.976,0,0,0-1.152-.938,62.637,62.637,0,0,1-13.527,1.877,3.126,3.126,0,0,0,.216,2.31c4.533,0.361,4.893.462,4.893,5.415v31.623Zm9.354-15.956a9.194,9.194,0,0,1,5.612-1.805c3.526,0,6.188,3.249,6.188,10.325,0,5.891-1.007,14.3-6.692,14.3a6.3,6.3,0,0,1-5.108-2.527V342.382Zm53.962-15.45c0-2.094.36-3.105,5.036-3.105,3.31,0,7.34,1.3,7.34,8.375,0,5.776-3.238,8.159-8.347,8.159h-4.029V326.932Zm0,16.461H900.7c7.412,0,10.649,4.4,10.649,10.613,0,4.332-1.511,10.613-11.008,10.613-4.318,0-4.749-1.083-4.749-3.177V343.393Zm-4.965-22.454c-2.878,0-11.081-.144-11.081-0.144a1.667,1.667,0,0,0,0,2.455c3.958,0.216,5.972.5,5.972,6.5V358.7c0,5.992-2.014,6.281-5.972,6.5a1.667,1.667,0,0,0,0,2.455s8.2-.145,11.081-0.145,7.483,0.145,11.8.145c14.751,0,19.5-6.21,19.5-13.574,0-6.353-3.166-10.468-10.792-12.49v-0.144c3.885-1.733,6.907-5.7,6.907-9.386,0-4.982-2.677-11.263-17.2-11.263C897.246,320.8,892.907,320.939,890.626,320.939Zm48.422,37.76V344.31c0-3.588.288-7.632,0.288-7.632,0-.794-0.648-1.227-1.655-1.227-2.051.794-7.843,1.372-12.808,2.022a6.266,6.266,0,0,0,.144,2.31c3.922,0.368,4.677.939,4.677,5.054V358.7c0,5.992-.791,6.137-5.18,6.5a2.487,2.487,0,0,0,0,2.455c3.022-.073,6.015-0.145,9.857-0.145s6.764,0.072,9.858.145a2.492,2.492,0,0,0,0-2.455C939.84,364.908,939.048,364.691,939.048,358.7Zm-9.714-34.222a4.625,4.625,0,0,0,4.605,4.765,4.947,4.947,0,0,0,5.109-4.476A4.722,4.722,0,0,0,934.371,320C930.989,320,929.334,322.311,929.334,324.477Zm17.843,11.7a4.586,4.586,0,0,0-3.022,1.083v2.094c0,0.361.072,0.433,0.36,0.433h4.677c-0.165,7.27-.216,16.533-0.216,20.143,0,2.527.619,4.96,2.159,6.282a10.086,10.086,0,0,0,5.972,2.021c3.979,0,8.346-2.021,9.785-4.043,0-.866-0.431-1.3-1.3-2.022a7.53,7.53,0,0,1-4.1,1.011c-1.583,0-3.166-1.227-3.166-4.837s-0.072-11.335-.072-18.555h7.267c0.72,0,1.727-.289,1.727-0.939v-2.238a0.467,0.467,0,0,0-.576-0.433h-8.418l0.072-2.455c0.144-4.808.36-8.158,0.36-8.158a0.525,0.525,0,0,0-.554-0.635A23.493,23.493,0,0,0,953.8,326.2c-1.223.512-3.324,0.931-3.814,1.6-0.5.686-.791,2.635-0.791,8.368Zm21.8,20.793a73.673,73.673,0,0,0,1.223,9.675,37.227,37.227,0,0,0,10,1.588c5.54,0,12.448-3.025,12.448-9.313a8.713,8.713,0,0,0-2.2-6.21,23.957,23.957,0,0,0-8.375-5.559,5.962,5.962,0,0,1-3.886-5.631,3.164,3.164,0,0,1,3.454-3.033c2.518,0,4.965,2.311,6.763,6.715a3.484,3.484,0,0,0,2.807-.361,29.328,29.328,0,0,0-.936-7.653,16.928,16.928,0,0,0-8.059-1.733,13.8,13.8,0,0,0-9.713,3.754,8.038,8.038,0,0,0-2.447,5.632,7.781,7.781,0,0,0,2.231,5.415,30.209,30.209,0,0,0,8.346,5.992,6.1,6.1,0,0,1,3.67,5.632c0,2.317-2.3,3.537-4.245,3.537-3.245,0-6.692-3.285-8.2-8.591A5.571,5.571,0,0,0,968.977,356.966Z" transform="translate(-718.5 -317.125)"/>
</svg>
