<svg xmlns="http://www.w3.org/2000/svg" width="282.78" height="51.313" viewBox="0 0 282.78 51.313">
  <defs>
    <style>
      .cls-1 {
        fill: #9c9c5a;
        fill-rule: evenodd;
      }
    </style>
  </defs>
  <path id="Dreb_Bits" data-name="Dreb Bits" class="cls-1" d="M735.072,358.916v-29.6c0-3.971,1.87-5.415,4.461-5.415,14.174,0,15.757,12.2,15.757,23.1,0,13.14-7.842,17.616-13.311,17.616C736.942,364.619,735.072,363.753,735.072,358.916Zm-4.965,8.591c2.878,0,8.778.145,11.656,0.145,6.3,0,13.477-1.6,18.564-6.065,3.454-3.032,5.828-9.054,5.828-16.389,0-13.357-8.634-24.331-26.334-24.331-3.814,0-6.836.072-9.714,0.072s-11.081-.144-11.081-0.144a1.667,1.667,0,0,0,0,2.455c3.958,0.216,5.972.5,5.972,6.5V358.7c0,5.992-2.014,6.281-5.972,6.5a1.667,1.667,0,0,0,0,2.455S727.229,367.507,730.107,367.507Zm54.106-19.371a6.286,6.286,0,0,1,1.727-4.743,2.8,2.8,0,0,1,2.281-1.227,3.177,3.177,0,0,1,2.036,1.379,4.5,4.5,0,0,0,3.346,1.184c2.087,0,4.137-2.2,4.137-5.235,0-1.877-2.158-4.043-4.749-4.043-2.518,0-5.252,2.166-8.562,6.931h-0.288c-0.144-2.166-.5-5.7-0.5-5.7a1.5,1.5,0,0,0-1.654-1.227,75.917,75.917,0,0,1-11.945,2.383,5.907,5.907,0,0,0,.144,2.238c3.922,0.368,4.677,1.011,4.677,5.126v13.5c0,5.992-.791,6.137-5.18,6.5a2.487,2.487,0,0,0,0,2.455c3.022-.073,6.015-0.145,9.857-0.145s6.764,0.072,9.858.145a2.492,2.492,0,0,0,0-2.455c-4.389-.289-5.181-0.506-5.181-6.5V348.136Zm25.326-.483c0.072-2.527.46-5.249,1.439-6.715a5.566,5.566,0,0,1,3.885-2.455c1.943,0,4.6,1.878,4.6,7.653a4.516,4.516,0,0,1-.143,1.517h-9.786Zm18.276,10.541a13.347,13.347,0,0,1-9.57,3.826c-5.612,0-9.066-3.249-9.066-10.324,0-.506.072-0.794,0.072-1.155H826.52a1.953,1.953,0,0,0,2.086-2.239c0-6.136-2.374-12.851-12.951-12.851-7.555,0-16.189,6.715-16.189,17.761a15.521,15.521,0,0,0,4.605,11.407c2.7,2.462,6.252,3.61,11.368,3.61,4.965,0,9.858-2.527,13.455-7.8C828.894,359.493,828.534,358.194,827.815,358.194Zm7.7,0.144a66.574,66.574,0,0,1-.432,9.6,7.787,7.787,0,0,0,2.446.506,9.217,9.217,0,0,0,2.3-3.105c2.806,2.166,7.224,2.888,10.5,2.888,7.987,0,16.4-7.934,16.4-18.266a17.006,17.006,0,0,0-3.885-10.83c-2.591-2.96-6.066-3.682-9.858-3.682-2.23,0-6.044,2.527-8.131,4.043V325.416c0-4.693.216-7.365,0.216-7.365a0.975,0.975,0,0,0-1.151-.938A62.637,62.637,0,0,1,830.4,318.99a3.126,3.126,0,0,0,.216,2.31c4.533,0.361,4.893.462,4.893,5.415v31.623Zm9.353-15.956a9.2,9.2,0,0,1,5.613-1.805c3.525,0,6.188,3.249,6.188,10.325,0,5.891-1.008,14.3-6.692,14.3a6.3,6.3,0,0,1-5.109-2.527V342.382Zm56.121-15.45c0-2.094.36-3.105,5.037-3.105,3.31,0,7.339,1.3,7.339,8.375,0,5.776-3.238,8.159-8.347,8.159h-4.029V326.932Zm0,16.461H906.1c7.411,0,10.649,4.4,10.649,10.613,0,4.332-1.511,10.613-11.009,10.613-4.317,0-4.749-1.083-4.749-3.177V343.393Zm-4.965-22.454c-2.878,0-11.08-.144-11.08-0.144a1.665,1.665,0,0,0,0,2.455c3.957,0.216,5.972.5,5.972,6.5V358.7c0,5.992-2.015,6.281-5.972,6.5a1.665,1.665,0,0,0,0,2.455s8.2-.145,11.08-0.145,7.483,0.145,11.8.145c14.75,0,19.5-6.21,19.5-13.574,0-6.353-3.166-10.468-10.793-12.49v-0.144c3.885-1.733,6.907-5.7,6.907-9.386,0-4.982-2.676-11.263-17.2-11.263C902.642,320.8,898.3,320.939,896.022,320.939Zm49.5,37.76V344.31c0-3.588.287-7.632,0.287-7.632,0-.794-0.647-1.227-1.655-1.227-2.05.794-7.842,1.372-12.807,2.022a6.266,6.266,0,0,0,.144,2.31c3.921,0.368,4.677.939,4.677,5.054V358.7c0,5.992-.792,6.137-5.181,6.5a2.487,2.487,0,0,0,0,2.455c3.022-.073,6.015-0.145,9.858-0.145s6.763,0.072,9.857.145a2.487,2.487,0,0,0,0-2.455C946.315,364.908,945.524,364.691,945.524,358.7Zm-9.714-34.222a4.625,4.625,0,0,0,4.605,4.765,4.947,4.947,0,0,0,5.109-4.476A4.722,4.722,0,0,0,940.847,320C937.465,320,935.81,322.311,935.81,324.477Zm18.922,11.7a4.586,4.586,0,0,0-3.022,1.083v2.094c0,0.361.072,0.433,0.36,0.433h4.677c-0.166,7.27-.216,16.533-0.216,20.143,0,2.527.619,4.96,2.158,6.282a10.087,10.087,0,0,0,5.973,2.021c3.979,0,8.346-2.021,9.785-4.043,0-.866-0.432-1.3-1.295-2.022a7.53,7.53,0,0,1-4.1,1.011c-1.583,0-3.166-1.227-3.166-4.837s-0.072-11.335-.072-18.555h7.267c0.72,0,1.727-.289,1.727-0.939v-2.238a0.467,0.467,0,0,0-.576-0.433h-8.418l0.072-2.455c0.144-4.808.359-8.158,0.359-8.158a0.525,0.525,0,0,0-.554-0.635,23.486,23.486,0,0,0-4.338,1.278c-1.223.512-3.324,0.931-3.814,1.6-0.5.686-.791,2.635-0.791,8.368Zm22.879,20.793a73.673,73.673,0,0,0,1.223,9.675,37.227,37.227,0,0,0,10,1.588c5.54,0,12.444-3.025,12.444-9.313a8.705,8.705,0,0,0-2.2-6.21,23.957,23.957,0,0,0-8.375-5.559,5.962,5.962,0,0,1-3.886-5.631,3.164,3.164,0,0,1,3.454-3.033c2.518,0,4.965,2.311,6.763,6.715a3.484,3.484,0,0,0,2.807-.361,29.328,29.328,0,0,0-.936-7.653,16.928,16.928,0,0,0-8.059-1.733,13.8,13.8,0,0,0-9.713,3.754,8.038,8.038,0,0,0-2.447,5.632,7.781,7.781,0,0,0,2.231,5.415,30.2,30.2,0,0,0,8.347,5.992,6.1,6.1,0,0,1,3.669,5.632c0,2.317-2.3,3.537-4.245,3.537-3.245,0-6.692-3.285-8.2-8.591A5.571,5.571,0,0,0,977.611,356.966Z" transform="translate(-718.5 -317.125)"/>
</svg>
